<svg width="253" height="117" viewBox="0 0 253 117" fill="none" xmlns="http://www.w3.org/2000/svg">
<text fill="#ED3237" xml:space="preserve" style="white-space: pre" font-family="Mistral" font-size="62" letter-spacing="0em"><tspan x="34" y="63.7119">ean on me</tspan></text>
<text fill="black" xml:space="preserve" style="white-space: pre" font-family="Times New Roman" font-size="15" font-style="italic" font-weight="bold" letter-spacing="0em"><tspan x="82.0426" y="102.321">Promoting Access</tspan></text>
<path fill-rule="evenodd" clip-rule="evenodd" d="M28.733 15.3059C25.9094 15.3059 22.4878 18.5585 22.4878 21.8391C22.4878 25.1196 24.7768 28.4517 27.6004 28.4517C30.424 28.4517 33.0906 25.3354 33.522 22.0548C33.9535 18.7743 31.5566 15.3059 28.733 15.3059V15.3059Z" fill="#ED3237"/>
<path fill-rule="evenodd" clip-rule="evenodd" d="M50.7806 0.964905C46.8273 0.964905 42.2879 5.0105 41.5328 9.4761C40.7778 13.9417 43.6992 17.3257 47.0055 17.3257C50.3117 17.3257 55.2569 13.3412 56.767 8.65991C58.2772 3.97871 54.734 0.964905 50.7806 0.964905Z" fill="#201E1E"/>
<path fill-rule="evenodd" clip-rule="evenodd" d="M72.1344 4.9023C39.6486 28.1237 43.0812 26.4288 34.3251 4.5634C41.9115 48.2119 -22.0154 73.2002 41.7677 75.6451C3.0804 67.6232 26.7409 49.0131 72.1344 4.9023V4.9023Z" fill="#201E1E"/>
<path fill-rule="evenodd" clip-rule="evenodd" d="M46.3217 18.4998C25.2693 36.436 25.4659 35.1725 17.1414 17.6217C27.5322 60.1915 -27.9814 72.452 31.4871 74.789C11.7313 71.4503 3.6248 63.7972 46.3217 18.4998V18.4998Z" fill="#ED3237"/>
<path d="M1.0559 114.844C108.919 56.8137 206.454 74.1545 247.415 92.3507" stroke="#201E1E" stroke-width="4" stroke-miterlimit="22.9256"/>
<path d="M8.822 93.0795C141.925 48.2084 210.985 86.6904 251.945 104.887" stroke="#ED3237" stroke-width="4" stroke-miterlimit="22.9256"/>
</svg>
