<?xml version="1.0" encoding="UTF-8"?>
<!DOCTYPE svg PUBLIC "-//W3C//DTD SVG 1.1//EN" "http://www.w3.org/Graphics/SVG/1.1/DTD/svg11.dtd">
<!-- Creator: CorelDRAW 2019 (64-Bit Evaluation Version) -->
<svg xmlns="http://www.w3.org/2000/svg" xml:space="preserve" width="254mm" height="185.208mm" version="1.1" style="shape-rendering:geometricPrecision; text-rendering:geometricPrecision; image-rendering:optimizeQuality; fill-rule:evenodd; clip-rule:evenodd"
viewBox="0 0 25400 18520.82"
 xmlns:xlink="http://www.w3.org/1999/xlink"
 xmlns:xodm="http://www.corel.com/coreldraw/odm/2003">
 <defs>
  <style type="text/css">
   <![CDATA[
    .str1 {stroke:#373435;stroke-width:250;stroke-miterlimit:22.9256}
    .str0 {stroke:black;stroke-width:20;stroke-miterlimit:22.9256}
    .fil0 {fill:none}
    .fil3 {fill:none;fill-rule:nonzero}
    .fil1 {fill:red}
    .fil2 {fill:black;fill-rule:nonzero}
   ]]>
  </style>
 </defs>
 <g id="Layer_x0020_1">
  <metadata id="CorelCorpID_0Corel-Layer"/>
  <rect class="fil0" x="79.36" y="66.48" width="25505.83" height="18322.03"/>
  <g id="_2129404588560">
   <path class="fil1 str0" d="M22633.19 4632.14l-1583.72 -223.62 19.69 -1411.84 1719.79 -1090.19 105 1521.41 751.62 581.23 -1012.38 623.01z"/>
   <path class="fil2" d="M11107.68 4929.54c1315.62,0 2506.74,533.31 3368.95,1395.52 862.22,862.22 1395.53,2053.34 1395.53,3368.96 0,1315.63 -533.31,2506.74 -1395.53,3368.96 -862.21,862.22 -2053.33,1395.53 -3368.95,1395.53 -1315.63,0 -2506.74,-533.31 -3368.96,-1395.53 -862.22,-862.22 -1395.53,-2053.33 -1395.53,-3368.96 0,-1315.62 533.31,-2506.74 1395.53,-3368.96 862.22,-862.21 2053.33,-1395.52 3368.96,-1395.52zm2578.18 2186.3c-659.75,-659.75 -1571.29,-1067.85 -2578.18,-1067.85 -1006.89,0 -1918.44,408.1 -2578.19,1067.85 -659.75,659.75 -1067.84,1571.29 -1067.84,2578.18 0,1006.89 408.09,1918.43 1067.84,2578.18 659.75,659.75 1571.3,1067.85 2578.19,1067.85 1006.89,0 1918.43,-408.1 2578.18,-1067.85 659.75,-659.75 1067.84,-1571.29 1067.84,-2578.18 0,-1006.89 -408.09,-1918.43 -1067.84,-2578.18z"/>
   <path class="fil2" d="M11107.68 2826.9c1896.24,0 3613.03,768.64 4855.75,2011.37 1242.73,1242.72 2011.37,2959.51 2011.37,4855.75 0,1896.25 -768.64,3613.03 -2011.37,4855.75 -1242.72,1242.73 -2959.51,2011.38 -4855.75,2011.38 -1896.25,0 -3613.04,-768.65 -4855.75,-2011.38 -1242.73,-1242.72 -2011.38,-2959.5 -2011.38,-4855.75 0,-1896.24 768.65,-3613.03 2011.38,-4855.75 1242.71,-1242.73 2959.5,-2011.37 4855.75,-2011.37zm4064.97 2802.15c-1040.25,-1040.26 -2477.47,-1683.7 -4064.97,-1683.7 -1587.51,0 -3024.73,643.44 -4064.98,1683.7 -1040.26,1040.25 -1683.69,2477.46 -1683.69,4064.97 0,1587.51 643.43,3024.73 1683.69,4064.97 1040.25,1040.27 2477.47,1683.7 4064.98,1683.7 1587.5,0 3024.72,-643.43 4064.97,-1683.7 1040.26,-1040.24 1683.7,-2477.46 1683.7,-4064.97 0,-1587.51 -643.44,-3024.72 -1683.7,-4064.97z"/>
   <circle class="fil1" cx="11107.68" cy="9694.02" r="2102.61"/>
   <path class="fil2" d="M11107.68 7032.18c734.99,0 1400.44,297.96 1882.16,779.68 481.72,481.71 779.68,1147.17 779.68,1882.16 0,734.98 -297.96,1400.45 -779.68,1882.17 -481.72,481.72 -1147.17,779.67 -1882.16,779.67 -735,0 -1400.45,-297.95 -1882.17,-779.67 -481.72,-481.72 -779.68,-1147.19 -779.68,-1882.17 0,-734.99 297.96,-1400.45 779.68,-1882.16 481.72,-481.72 1147.17,-779.68 1882.17,-779.68zm1091.39 1570.45c-279.27,-279.26 -665.14,-451.99 -1091.39,-451.99 -426.26,0 -812.13,172.73 -1091.39,451.99 -279.27,279.27 -452,665.13 -452,1091.39 0,426.24 172.73,812.13 452,1091.39 279.26,279.27 665.13,452 1091.39,452 426.25,0 812.12,-172.73 1091.39,-452 279.26,-279.26 451.99,-665.15 451.99,-1091.39 0,-426.26 -172.73,-812.12 -451.99,-1091.39z"/>
   <path class="fil3 str1" d="M11107.68 9694.02l12304.27 -6541.51"/>
  </g>
 </g>
</svg>
