<?xml version="1.0" encoding="UTF-8"?>
<!DOCTYPE svg PUBLIC "-//W3C//DTD SVG 1.1//EN" "http://www.w3.org/Graphics/SVG/1.1/DTD/svg11.dtd">
<!-- Creator: CorelDRAW 2019 (64-Bit Evaluation Version) -->
<svg xmlns="http://www.w3.org/2000/svg" xml:space="preserve" width="600mm" height="50mm" version="1.1" style="shape-rendering:geometricPrecision; text-rendering:geometricPrecision; image-rendering:optimizeQuality; fill-rule:evenodd; clip-rule:evenodd"
viewBox="0 0 60000 5000"
 xmlns:xlink="http://www.w3.org/1999/xlink"
 xmlns:xodm="http://www.corel.com/coreldraw/odm/2003">
 <defs>
  <style type="text/css">
   <![CDATA[
    .str0 {stroke:#201E1E;stroke-width:105.83;stroke-miterlimit:22.9256}
    .str1 {stroke:#ED3237;stroke-width:105.83;stroke-miterlimit:22.9256}
    .fil5 {fill:none}
    .fil4 {fill:#201E1E}
    .fil3 {fill:#ED3237}
    .fil2 {fill:black;fill-rule:nonzero}
    .fil1 {fill:#ED3237;fill-rule:nonzero}
    .fil0 {fill:url(#id0);fill-opacity:1}
   ]]>
  </style>
  <linearGradient id="id0" gradientUnits="userSpaceOnUse" x1="17086.03" y1="3283.51" x2="30185.88" y2="2690.64">
   <stop offset="0" style="stop-opacity:1; stop-color:#FEFEFE"/>
   <stop offset="1" style="stop-opacity:1; stop-color:#282829"/>
  </linearGradient>
 </defs>
 <g id="Layer_x0020_1">
  <metadata id="CorelCorpID_0Corel-Layer"/>
  <path class="fil0" d="M59.25 2.79c4000.75,0 9956.31,1903.23 14193.68,1903.23 6776.5,0 12447.52,-1324.56 19150.03,-793.21l26505.66 0 0 1817.62 -26535.67 0 0 -10.63c-11346.52,-290.98 -17710.37,1822.3 -23227.62,897.96 -3188.51,-534.18 -7479.36,0 -10086.08,1186.5l0 -5001.47z"/>
  <g id="_1653952245040">
   <path class="fil1" d="M3794.82 2096.38c6.56,-10.94 14.77,-22.15 25.16,-33.36 10.11,-11.48 23.23,-22.96 38.82,-34.99 1.64,-10.66 3.28,-21.33 4.92,-31.72 1.37,-10.39 2.46,-21.05 3.01,-31.71 1.64,-7.38 4.1,-16.13 7.65,-26.25 3.56,-10.11 7.38,-21.05 11.49,-32.81 4.92,-11.75 11.48,-26.52 19.68,-44.01 8.2,-17.78 19.14,-37.46 32.54,-59.33 11.21,-12.31 22.69,-25.7 34.99,-40.47 12.3,-14.49 24.61,-29.52 36.91,-44.29 5.74,-4.92 12.3,-9.29 19.14,-13.67 6.83,-4.37 13.94,-9.02 20.78,-14.49 6.29,-2.19 13.67,-3.83 21.6,-5.47 7.93,-1.64 16.67,-2.46 26.52,-2.46 13.12,0 24.06,1.37 32.26,4.1 8.2,2.46 15.04,7.11 20.5,13.4 3.56,4.37 7.11,10.66 10.67,19.41 3.55,8.48 6.83,18.87 10.11,31.17 1.37,10.66 3.28,22.42 5.47,35.27 0,-3.28 -0.82,-1.91 -2.73,3.83 -1.92,6.01 -4.65,15.31 -8.48,28.16l-7.11 25.42c-7.65,25.7 -24.33,55.23 -50.3,88.86 -26.25,33.63 -61.52,72.18 -105.81,115.38 -3.56,3.82 -6.84,8.47 -9.57,13.94 -2.46,5.74 -3.83,11.76 -3.83,18.04 0,11.21 1.92,21.06 6.02,29.53 4.1,8.75 9.84,15.04 17.22,19.41 4.38,3.01 11.21,6.29 20.51,9.57 9.57,3.01 20.5,6.02 33.35,8.75 21.05,-1.64 40.19,-5.19 57.14,-10.39 17.23,-5.47 32.54,-12.03 45.94,-19.68 2.73,-1.64 7.1,-4.1 12.84,-7.11 6.02,-3.01 11.76,-7.11 17.78,-12.03 6.83,15.58 13.12,29.53 18.31,41.83 5.47,12.3 9.57,22.97 12.85,31.99 -30.34,30.06 -58.23,53.03 -83.11,68.34 -24.88,15.31 -47.57,22.96 -68.62,22.96 -8.48,5.47 -18.32,9.3 -29.26,11.76 -10.93,2.46 -23.78,3.55 -38.82,3.55 -19.69,0 -37.18,-3 -52.5,-8.74 -15.31,-6.02 -27.88,-14.77 -38.27,-25.98 -5.2,-5.47 -10.66,-13.39 -15.86,-23.78 -5.47,-10.67 -10.94,-22.97 -16.95,-37.73 -4.65,-11.75 -9.3,-20.5 -13.67,-25.97 -4.1,-5.74 -9.02,-8.47 -14.49,-8.47 -4.1,0 -9.02,1.91 -14.22,6.01 -5.47,4.1 -11.21,10.12 -17.77,18.05 -2.19,-7.93 -6.01,-18.05 -11.48,-29.8 -5.47,-11.76 -12.58,-26.25 -21.33,-44.02zm256.18 -259.19c-11.75,0 -27.61,15.31 -47.57,46.21 -19.96,30.89 -29.8,53.58 -29.8,68.07 0,3.01 0.55,5.47 1.91,6.84 1.37,1.37 4.38,1.91 8.48,1.91 6.01,0 10.93,-3 14.49,-9.29 3.83,-6.02 7.38,-11.76 10.66,-17.23 5.74,-5.46 11.48,-11.21 17.23,-17.22 5.74,-6.29 11.2,-12.3 16.4,-18.32 6.56,-7.38 11.48,-14.76 14.49,-22.42 3.28,-7.38 4.92,-15.03 4.92,-22.42 0,-4.92 -0.82,-8.75 -2.73,-11.75 -1.92,-3.01 -4.65,-4.38 -8.48,-4.38zm173.34 224.47l72.73 -47.58c2.73,-2.73 5.74,-6.28 9.57,-10.93 3.82,-4.38 7.93,-10.94 12.85,-19.41 3.82,-7.11 8.75,-12.85 14.76,-17.77 6.02,-4.65 13.12,-9.03 21.33,-12.85 4.1,-5.2 10.39,-12.03 18.31,-19.96 7.93,-7.93 18.05,-17.23 30.35,-27.89 6.02,-3.28 13.4,-7.93 22.42,-14.22 9.02,-6.01 18.87,-14.21 29.52,-24.33 48.66,-45.93 91.04,-80.38 127.68,-103.35 36.63,-22.96 67.26,-34.45 92.41,-34.45 13.94,0 24.06,3.01 30.62,8.75 6.83,6.02 10.12,14.22 10.12,24.88 0,11.21 -1.92,21.06 -6.02,29.53 -4.1,8.75 -10.12,15.86 -18.86,21.6 -13.13,9.84 -27.62,20.5 -43.2,32.26 -8.48,11.21 -18.87,22.97 -31.17,35.54 -12.3,12.58 -26.52,24.88 -43.2,37.19 -5.19,7.11 -9.84,13.12 -13.39,18.59 -2.74,2.46 -7.93,7.38 -15.32,14.21 -7.38,7.11 -17.22,15.04 -29.52,24.06 -5.47,11.76 -16.95,27.07 -35,45.66 -17.77,18.87 -41.55,41.29 -71.35,67.26 -3.82,3.83 -10.39,12.3 -20.23,25.7 -9.57,13.4 -22.14,30.89 -37.45,53.04l5.46 7.1c11.76,-3.82 24.06,-10.11 36.91,-19.13 12.85,-9.3 27.07,-21.33 42.65,-36.09 18.04,-16.68 32.8,-30.07 44.29,-40.46 11.48,-10.39 19.68,-17.23 24.6,-20.51 3.56,-2.19 7.38,-4.37 10.94,-6.29 3.83,-2.18 8.2,-4.92 12.85,-8.2 24.6,-29.25 47.57,-51.12 68.62,-65.07 21.33,-14.22 41.01,-21.32 59.33,-21.32 11.21,0 19.69,4.37 25.43,13.12 6.01,8.75 9.29,22.15 10.39,39.64 -1.1,26.8 -1.64,52.5 -1.64,76.83 -0.55,17.22 4.1,32.53 13.94,46.2 9.84,13.67 22.69,20.51 38.55,20.51 4.92,0 9.57,-1.37 13.94,-4.1 4.65,-2.74 9.3,-6.29 13.95,-10.66 3.82,-4.93 7.38,-9.57 10.66,-13.95 3.55,-4.37 7.11,-8.47 10.66,-12.85 2.19,-1.09 5.2,-3 9.3,-5.74 3.83,-2.73 7.65,-6.01 11.48,-9.84 7.66,16.13 14.22,30.07 19.41,42.1 5.2,12.03 9.02,22.7 11.76,31.72 -12.3,11.2 -24.33,22.95 -36.36,34.98 -12.03,12.31 -24.61,23.79 -38.01,34.45 -16.13,12.31 -31.44,21.6 -46.48,27.89 -14.76,6.29 -29.8,9.29 -44.83,9.29 -34.45,0 -61.25,-9.84 -79.84,-29.52 -18.59,-19.96 -29.53,-49.76 -32.81,-89.94 0,-4.65 -0.82,-9.57 -1.91,-14.77 -1.37,-4.92 -4.37,-10.11 -8.48,-15.58 -2.73,2.73 -5.74,5.47 -8.74,8.48 -3.29,3 -7.11,6.83 -11.21,11.48 -7.11,5.47 -15.86,12.03 -26.25,20.23 -10.39,7.92 -22.42,17.49 -36.36,28.7 -18.87,19.14 -34.44,34.99 -47.29,47.3 -12.85,12.3 -22.15,21.05 -27.34,26.52 -10.67,9.02 -23.24,18.04 -37.46,27.06 -13.94,9.03 -30.07,18.32 -47.57,28.16 -11.21,5.75 -20.78,10.39 -28.98,13.95 -7.93,3.55 -13.95,5.19 -17.5,5.19 -25.7,0 -44.84,-6.29 -57.14,-18.86 -12.3,-12.58 -18.32,-31.99 -18.32,-58.51 0,-14.49 3.28,-28.16 9.57,-41.28 6.29,-13.13 15.58,-25.98 28.16,-38.28 1.09,-7.11 1.64,-12.58 1.64,-16.94 0,-2.74 -0.55,-5.47 -1.91,-8.2 -1.37,-3.01 -3.28,-6.29 -5.2,-9.85 -3.28,-7.65 -6.83,-16.13 -10.93,-25.42 -3.83,-9.57 -8.21,-19.69 -13.13,-30.35 2.19,-2.19 5.2,-6.29 9.3,-12.3 3.83,-6.02 8.47,-13.67 13.94,-22.42zm589.45 34.72c2.19,-3.83 4.92,-7.93 8.48,-12.3 3.55,-4.65 7.65,-10.12 12.3,-16.41 5.47,-4.1 12.3,-10.39 21.05,-18.32 8.48,-7.93 18.05,-17.22 28.71,-27.88 9.57,-10.67 21.6,-23.79 35.27,-39.37 13.94,-15.86 30.89,-34.73 50.58,-57.15 8.75,-9.02 19.41,-20.5 32.26,-34.44 12.85,-14.22 27.89,-31.17 45.66,-50.86 15.04,-17.49 30.89,-30.34 48.12,-38.82 17.22,-8.48 35.27,-12.85 54.68,-12.85 19.14,0 33.35,6.01 42.38,18.04 9.02,12.03 13.67,29.26 13.67,52.22 0,12.31 -4.65,35.82 -13.67,70.27 -9.03,34.72 -23.24,80.38 -42.38,137.52 -4.92,10.66 -9.57,20.78 -13.67,30.35 -3.28,6.83 -5.47,13.12 -6.56,18.32 -1.1,5.46 -1.37,9.57 -1.37,12.03 0,3.28 1.64,7.38 5.47,12.03 2.73,-1.64 5.19,-3.56 7.65,-6.29 2.46,-2.74 5.2,-6.02 8.48,-9.57 4.1,-8.2 10.66,-16.41 19.41,-25.43 9.02,-8.75 19.41,-18.59 31.72,-29.25 4.92,-9.02 10.93,-18.05 18.86,-26.8 7.66,-8.74 16.4,-16.95 25.97,-24.33 2.19,-2.19 4.92,-5.74 8.48,-10.39 3.28,-4.92 7.38,-9.84 12.3,-15.31 6.84,-6.83 15.31,-14.22 24.88,-21.6 9.57,-7.38 20.78,-15.31 33.63,-23.24 14.22,-7.38 27.34,-13.39 38.82,-17.77 11.49,-4.1 21.33,-6.29 30.08,-6.29 16.4,0 31.17,4.11 44.02,12.03 12.57,7.93 23.51,20.51 32.8,37.46 10.67,33.08 20.78,63.7 30.35,91.86 5.74,16.68 12.31,28.98 19.69,36.91 7.11,7.93 15.31,12.03 24.33,12.03 6.84,0 12.85,-1.36 18.32,-4.1 5.47,-2.73 10.66,-6.83 15.31,-12.3l32.81 73.82c-9.03,7.37 -18.32,15.3 -27.89,23.23 -9.84,8.2 -19.14,15.85 -28.16,23.24 -12.3,11.21 -23.79,19.13 -34.45,23.78 -10.66,4.65 -21.32,6.84 -31.99,6.84 -12.3,0 -24.06,-2.74 -35.27,-7.93 -11.21,-5.47 -20.78,-13.4 -28.7,-24.06 -4.38,-4.1 -9.57,-12.03 -16.13,-23.51 -6.29,-11.49 -13.68,-25.69 -22.42,-42.92 -6.84,-6.83 -14.77,-15.86 -23.52,-27.34 -8.75,-11.48 -19.13,-24.88 -30.89,-40.46l-7.11 -2.46c-10.12,3.28 -20.23,8.2 -30.07,14.49 -9.85,6.29 -20.51,14.76 -31.45,24.88 -24.05,21.32 -41.55,34.45 -52.22,39.91 -10.66,5.2 -17.77,11.49 -21.59,18.31 -7.39,12.85 -20.24,29.53 -38.28,49.76 -18.05,20.23 -40.74,44.29 -68.08,71.91 -6.83,7.11 -13.67,13.67 -20.78,20.5 -6.83,6.56 -13.94,13.13 -20.78,19.69 -6.83,5.74 -14.76,9.84 -23.51,12.3 -8.75,2.46 -18.59,3.55 -29.25,3.55 -21.33,0 -33.08,-7.38 -34.72,-22.14 -1.92,-14.76 -3.83,-29.53 -5.47,-44.57 8.2,-22.41 17.22,-50.3 27.34,-84.2 10.11,-33.62 21.87,-72.72 34.99,-117.83 0,-2.46 1.1,-6.02 3.01,-10.66 1.64,-4.65 4.1,-10.67 6.56,-18.05 2.74,-6.83 4.65,-12.85 5.74,-18.04 1.1,-4.92 1.64,-9.57 1.64,-13.13 0,-3.82 -1.36,-6.83 -4.1,-9.02 -2.73,-1.91 -6.83,-3.01 -12.85,-3.01 -5.19,0 -12.3,3.01 -21.05,9.57 -9.02,6.29 -19.41,16.41 -31.71,30.35 -15.04,16.13 -27.07,28.71 -36.09,37.73 -9.03,9.02 -15.31,14.49 -18.32,16.13 -5.47,3.56 -11.76,9.02 -18.87,15.86 -7.1,7.11 -15.31,14.76 -24.33,23.24 -1.09,2.19 -2.73,5.47 -4.92,9.57 -2.19,4.37 -5.47,9.02 -10.39,14.49 -2.19,-7.93 -6.01,-18.05 -11.48,-29.8 -5.47,-11.76 -12.58,-26.25 -21.33,-44.02zm1175.9 0c3.83,-3.83 7.66,-8.48 11.76,-14.77 3.83,-6.01 8.47,-12.85 13.94,-20.23l61.79 -42.1c7.66,-9.02 19.14,-20.51 34.72,-34.45 15.59,-13.94 34.73,-31.17 57.69,-51.13 2.74,-6.01 7.11,-12.85 13.4,-20.5 6.01,-7.66 13.4,-15.31 21.87,-22.97 7.38,-6.83 15.04,-13.39 22.42,-19.41 7.38,-6.29 14.49,-12.3 20.78,-18.04 7.93,-8.21 15.58,-16.13 22.69,-24.06 7.38,-7.93 14.49,-15.86 22.15,-23.24 8.47,-7.38 17.22,-13.4 26.24,-17.77 9.03,-4.1 19.14,-6.29 29.8,-6.29 11.76,0 20.51,1.37 26.8,4.37 6.01,3.01 9.29,7.11 9.84,12.31 -5.19,12.3 -10.94,24.6 -16.68,36.91l4.65 7.38c23.51,-9.3 41.83,-15.86 55.23,-20.23 13.39,-4.11 21.87,-6.29 25.7,-6.29 38.82,0 68.08,11.75 87.49,35.54 19.41,23.79 29.25,59.87 29.25,107.72 0,9.3 -1.09,19.96 -3.28,32.26 -2.19,12.03 -5.47,25.43 -10.39,39.92 -5.19,16.13 -10.93,29.25 -17.22,39.92 -6.02,10.93 -11.76,18.59 -17.23,23.23 2.19,6.02 4.65,10.67 7.38,13.68 2.46,2.73 6.02,4.37 10.39,4.37 4.1,0 8.48,-1.37 13.13,-4.1 4.64,-2.74 10.11,-6.56 16.4,-12.03 5.47,11.76 10.66,24.06 15.59,36.63 5.19,12.58 10.38,24.88 15.58,37.19 -9.57,8.46 -18.87,16.94 -27.89,25.14 -9.29,7.93 -18.86,15.86 -28.98,23.24 -12.3,10.39 -23.78,17.77 -34.72,22.15 -10.94,4.64 -21.6,6.83 -32.26,6.83 -12.31,0 -22.42,-2.73 -30.62,-8.75 -7.93,-6.01 -14.22,-14.22 -19.14,-25.15 -13.4,17.77 -29.53,34.17 -48.39,48.94 -18.87,14.76 -39.92,27.06 -62.61,36.63 -13.4,6.57 -25.7,11.49 -36.64,15.04 -10.94,3.56 -20.78,5.2 -29.8,5.2 -2.73,0 -7.93,1.09 -15.58,3.28 -7.93,2.18 -14.22,3.28 -18.87,3.28 -30.35,0 -57.96,-12.85 -82.29,-38.83 -24.61,-25.7 -36.91,-54.68 -36.91,-86.39 0,-12.85 3,-29.79 8.75,-51.12 6.01,-21.05 9.02,-33.35 9.02,-37.18 0,-3.83 -1.37,-6.84 -3.83,-9.3 -2.19,-2.18 -5.74,-3.55 -9.84,-3.55 -2.74,0 -9.02,4.1 -19.41,12.03 -10.12,7.93 -24.34,19.41 -42.93,34.45 -1.64,2.19 -3.55,5.47 -5.74,9.57 -2.19,4.37 -5.47,9.02 -10.39,14.49 -4.37,-12.31 -9.29,-24.61 -14.76,-37.19 -5.47,-12.57 -11.49,-24.87 -18.05,-36.63zm385.5 -145.18c-2.73,0.55 -6.56,3.28 -11.48,8.48 -5.2,4.92 -10.12,11.21 -14.77,18.86 -7.65,12.03 -16.13,25.43 -25.7,39.92 -6.01,6.56 -12.03,11.48 -18.86,14.76 -6.56,3.56 -14.22,6.02 -22.69,7.66 -5.47,0.54 -10.94,5.74 -16.95,15.58 -5.75,9.84 -11.49,24.33 -17.5,42.93 -5.74,16.67 -10.12,30.62 -12.85,42.37 -2.74,11.76 -3.83,21.6 -3.83,29.8 0,14.76 3.56,25.97 11.21,33.62 7.38,7.39 18.87,11.21 34.18,11.21 24.6,0 47.02,-6.83 67.8,-20.5 20.51,-13.67 39.64,-34.17 57.96,-61.23 8.48,-10.12 16.41,-19.69 23.79,-28.99 4.37,-3 7.93,-8.2 10.39,-15.58 2.73,-7.11 5.46,-16.13 8.2,-26.79l14.22 -45.66c-4.65,-15.86 -9.3,-28.71 -13.4,-38 -4.38,-9.3 -8.75,-15.04 -12.85,-17.23 -2.74,-1.64 -8.48,-3.28 -17.77,-5.19 -9.02,-1.92 -22.15,-3.83 -39.1,-6.02zm193.57 145.18c2.19,-3.83 4.92,-7.93 8.48,-12.3 3.55,-4.65 7.65,-10.12 12.3,-16.41 5.47,-4.1 12.3,-10.39 21.05,-18.32 8.48,-7.93 18.05,-17.22 28.71,-27.88 9.57,-10.67 21.6,-23.79 35.27,-39.37 13.94,-15.86 30.89,-34.73 50.58,-57.15 8.75,-9.02 19.41,-20.5 32.26,-34.44 12.85,-14.22 27.89,-31.17 45.66,-50.86 15.04,-17.49 30.89,-30.34 48.12,-38.82 17.22,-8.48 35.27,-12.85 54.68,-12.85 19.14,0 33.35,6.01 42.38,18.04 9.02,12.03 13.67,29.26 13.67,52.22 0,12.31 -4.65,35.82 -13.67,70.27 -9.03,34.72 -23.24,80.38 -42.38,137.52 -4.92,10.66 -9.57,20.78 -13.67,30.35 -3.28,6.83 -5.47,13.12 -6.56,18.32 -1.1,5.46 -1.37,9.57 -1.37,12.03 0,3.28 1.64,7.38 5.47,12.03 2.73,-1.64 5.19,-3.56 7.65,-6.29 2.46,-2.74 5.2,-6.02 8.48,-9.57 4.1,-8.2 10.66,-16.41 19.41,-25.43 9.02,-8.75 19.41,-18.59 31.72,-29.25 4.92,-9.02 10.93,-18.05 18.86,-26.8 7.66,-8.74 16.4,-16.95 25.97,-24.33 2.19,-2.19 4.92,-5.74 8.48,-10.39 3.28,-4.92 7.38,-9.84 12.3,-15.31 6.84,-6.83 15.31,-14.22 24.88,-21.6 9.57,-7.38 20.78,-15.31 33.63,-23.24 14.22,-7.38 27.34,-13.39 38.82,-17.77 11.49,-4.1 21.33,-6.29 30.08,-6.29 16.4,0 31.17,4.11 44.02,12.03 12.57,7.93 23.51,20.51 32.8,37.46 10.67,33.08 20.78,63.7 30.35,91.86 5.74,16.68 12.31,28.98 19.69,36.91 7.11,7.93 15.31,12.03 24.33,12.03 6.84,0 12.85,-1.36 18.32,-4.1 5.47,-2.73 10.66,-6.83 15.31,-12.3l32.81 73.82c-9.03,7.37 -18.32,15.3 -27.89,23.23 -9.84,8.2 -19.14,15.85 -28.16,23.24 -12.3,11.21 -23.79,19.13 -34.45,23.78 -10.66,4.65 -21.32,6.84 -31.99,6.84 -12.3,0 -24.06,-2.74 -35.27,-7.93 -11.21,-5.47 -20.78,-13.4 -28.7,-24.06 -4.38,-4.1 -9.57,-12.03 -16.13,-23.51 -6.29,-11.49 -13.68,-25.69 -22.42,-42.92 -6.84,-6.83 -14.77,-15.86 -23.52,-27.34 -8.75,-11.48 -19.13,-24.88 -30.89,-40.46l-7.11 -2.46c-10.12,3.28 -20.23,8.2 -30.07,14.49 -9.85,6.29 -20.51,14.76 -31.45,24.88 -24.05,21.32 -41.55,34.45 -52.22,39.91 -10.66,5.2 -17.77,11.49 -21.59,18.31 -7.39,12.85 -20.24,29.53 -38.28,49.76 -18.05,20.23 -40.74,44.29 -68.08,71.91 -6.83,7.11 -13.67,13.67 -20.78,20.5 -6.83,6.56 -13.94,13.13 -20.78,19.69 -6.83,5.74 -14.76,9.84 -23.51,12.3 -8.75,2.46 -18.59,3.55 -29.25,3.55 -21.33,0 -33.08,-7.38 -34.72,-22.14 -1.92,-14.76 -3.83,-29.53 -5.47,-44.57 8.2,-22.41 17.22,-50.3 27.34,-84.2 10.11,-33.62 21.87,-72.72 34.99,-117.83 0,-2.46 1.1,-6.02 3.01,-10.66 1.64,-4.65 4.1,-10.67 6.56,-18.05 2.74,-6.83 4.65,-12.85 5.74,-18.04 1.1,-4.92 1.64,-9.57 1.64,-13.13 0,-3.82 -1.36,-6.83 -4.1,-9.02 -2.73,-1.91 -6.83,-3.01 -12.85,-3.01 -5.19,0 -12.3,3.01 -21.05,9.57 -9.02,6.29 -19.41,16.41 -31.71,30.35 -15.04,16.13 -27.07,28.71 -36.09,37.73 -9.03,9.02 -15.31,14.49 -18.32,16.13 -5.47,3.56 -11.76,9.02 -18.87,15.86 -7.1,7.11 -15.31,14.76 -24.33,23.24 -1.09,2.19 -2.73,5.47 -4.92,9.57 -2.19,4.37 -5.47,9.02 -10.39,14.49 -2.19,-7.93 -6.01,-18.05 -11.48,-29.8 -5.47,-11.76 -12.58,-26.25 -21.33,-44.02zm1175.89 0c3.28,-3.83 6.84,-8.75 11.21,-14.77 4.38,-6.01 9.02,-12.85 14.49,-20.23 23.52,-29.25 46.21,-55.5 68.35,-78.74 22.15,-22.96 43.2,-43.74 62.89,-61.79 10.11,-9.57 22.42,-21.87 36.91,-37.18 14.49,-15.04 31.16,-32.53 50.58,-52.22 19.13,-7.38 40.19,-15.86 63.15,-25.43 14.49,0 25.15,4.65 31.99,13.95 7.11,9.29 10.66,22.69 10.66,40.46 0,14.77 -1.36,30.9 -3.83,48.39 -2.18,17.23 -5.74,35 -9.84,53.04 -4.92,14.22 -9.02,28.16 -12.03,41.56 0,3.56 0.82,6.56 2.46,8.48 1.37,1.64 4.1,2.73 7.93,2.73 7.93,-3.83 23.51,-17.22 46.48,-40.19 22.97,-22.97 53.31,-54.95 90.77,-96.24 32.26,-35.27 60.15,-61.51 84.48,-79.01 24.06,-17.23 43.2,-25.97 57.69,-25.97 15.58,0 26.79,5.74 33.9,17.22 7.38,11.48 10.94,28.43 10.94,50.85 0,32.54 -2.46,63.71 -7.11,93.78 -4.92,30.35 -13.12,59.06 -24.88,86.94 -2.19,5.2 -3.55,9.85 -4.1,13.67 -0.55,3.56 -0.82,7.11 -0.82,10.39 0,3.56 3.28,7.11 9.57,10.39 4.37,-3.83 9.29,-9.02 15.03,-16.13 5.47,-6.83 12.03,-15.58 19.42,-26.25 12.3,-10.11 24.6,-20.23 36.91,-30.62 12.3,-10.11 25.7,-20.5 39.91,-31.16 15.04,-11.76 30.35,-20.51 45.66,-26.8 15.59,-6.01 30.62,-9.02 45.66,-9.02 2.73,0 5.47,0.82 7.93,2.19 2.73,1.64 5.47,3.55 8.2,5.74 12.3,10.66 22.42,20.5 30.35,29.25 7.93,8.75 13.67,16.41 16.68,22.69 20.77,42.66 39.37,74.64 55.77,95.7 16.13,21.05 30.62,31.44 42.65,31.44 2.73,0 5.47,-0.55 8.2,-1.92 2.74,-1.36 5.2,-3 7.93,-5.19 12.3,26.25 22.69,50.85 31.17,73.82 -19.14,15.02 -36.36,26.51 -51.13,34.16 -15.03,7.93 -28.16,11.76 -39.37,11.76 -36.63,0 -74.64,-23.79 -114.01,-71.9 -39.09,-47.84 -69.17,-71.63 -89.95,-71.63 -27.61,0 -73.81,41.01 -138.34,123.3 -64.52,82.29 -104.71,123.58 -120.84,123.58 -7.93,0 -18.87,-0.82 -32.26,-2.46 -4.1,-1.65 -7.39,-5.2 -9.57,-10.39 -2.19,-5.2 -3.28,-11.21 -3.28,-18.05 0,-8.2 1.64,-18.59 4.92,-31.71 3.28,-13.13 7.38,-28.44 12.85,-46.21 7.11,-22.42 12.57,-40.18 16.95,-53.58 4.1,-13.39 6.56,-22.69 7.11,-27.88 1.64,-7.11 3.82,-20.78 6.83,-41.01 3.01,-20.24 6.84,-47.3 11.76,-80.93 0,-5.74 -1.64,-10.39 -4.92,-13.4 -3.28,-3.28 -6.84,-4.92 -11.21,-4.92 -3.83,0 -7.93,1.09 -12.58,3.56 -4.37,2.46 -9.57,6.28 -15.58,11.75 -6.29,6.84 -13.4,13.67 -21.33,20.78 -7.65,6.84 -20.23,16.68 -37.18,29.53 -18.87,21.32 -38,43.2 -57.69,65.34 -19.41,22.15 -39.37,44.57 -59.87,66.98 -31.99,37.18 -57.69,64.79 -76.56,82.84 -19.14,17.77 -31.17,26.79 -36.63,26.79 -15.86,0 -27.89,-1.91 -36.37,-5.47 -8.2,-3.83 -12.3,-9.57 -12.3,-16.95 0,-17.5 9.57,-54.13 28.43,-109.9 18.87,-55.77 28.17,-94.87 28.17,-117.83 0,-3.83 -1.1,-6.84 -3.56,-9.3 -2.46,-2.46 -5.47,-3.55 -9.02,-3.55 -6.56,0 -13.95,3.55 -22.69,10.66 -9.03,7.11 -18.87,18.59 -30.08,33.9 -7.38,8.48 -16.4,18.32 -27.07,29.25 -10.66,11.21 -23.51,24.34 -39.09,39.1 -1.37,4.1 -3.56,8.2 -6.29,12.3 -2.73,3.83 -5.47,7.66 -8.75,11.49 -2.19,-7.93 -6.01,-18.05 -11.48,-29.8 -5.47,-11.76 -12.58,-26.25 -21.33,-44.02z"/>
   <path class="fil1" d="M8755.42 2096.38c6.56,-10.94 14.77,-22.15 25.16,-33.36 10.11,-11.48 23.23,-22.96 38.82,-34.99 1.64,-10.66 3.28,-21.33 4.92,-31.72 1.37,-10.39 2.46,-21.05 3.01,-31.71 1.64,-7.38 4.1,-16.13 7.65,-26.25 3.56,-10.11 7.38,-21.05 11.49,-32.81 4.92,-11.75 11.48,-26.52 19.68,-44.01 8.2,-17.78 19.14,-37.46 32.54,-59.33 11.21,-12.31 22.69,-25.7 34.99,-40.47 12.3,-14.49 24.61,-29.52 36.91,-44.29 5.74,-4.92 12.3,-9.29 19.14,-13.67 6.83,-4.37 13.94,-9.02 20.78,-14.49 6.29,-2.19 13.67,-3.83 21.6,-5.47 7.93,-1.64 16.67,-2.46 26.52,-2.46 13.12,0 24.06,1.37 32.26,4.1 8.2,2.46 15.04,7.11 20.5,13.4 3.56,4.37 7.11,10.66 10.67,19.41 3.55,8.48 6.83,18.87 10.11,31.17 1.37,10.66 3.28,22.42 5.47,35.27 0,-3.28 -0.82,-1.91 -2.73,3.83 -1.92,6.01 -4.65,15.31 -8.48,28.16l-7.11 25.42c-7.65,25.7 -24.33,55.23 -50.3,88.86 -26.25,33.63 -61.52,72.18 -105.81,115.38 -3.56,3.82 -6.84,8.47 -9.57,13.94 -2.46,5.74 -3.83,11.76 -3.83,18.04 0,11.21 1.92,21.06 6.02,29.53 4.1,8.75 9.84,15.04 17.22,19.41 4.38,3.01 11.21,6.29 20.51,9.57 9.57,3.01 20.5,6.02 33.35,8.75 21.05,-1.64 40.19,-5.19 57.14,-10.39 17.23,-5.47 32.54,-12.03 45.94,-19.68 2.73,-1.64 7.1,-4.1 12.84,-7.11 6.02,-3.01 11.76,-7.11 17.78,-12.03 6.83,15.58 13.12,29.53 18.31,41.83 5.47,12.3 9.57,22.97 12.85,31.99 -30.34,30.06 -58.23,53.03 -83.11,68.34 -24.88,15.31 -47.57,22.96 -68.62,22.96 -8.48,5.47 -18.32,9.3 -29.26,11.76 -10.93,2.46 -23.78,3.55 -38.82,3.55 -19.69,0 -37.18,-3 -52.5,-8.74 -15.31,-6.02 -27.88,-14.77 -38.27,-25.98 -5.2,-5.47 -10.66,-13.39 -15.86,-23.78 -5.47,-10.67 -10.94,-22.97 -16.95,-37.73 -4.65,-11.75 -9.3,-20.5 -13.67,-25.97 -4.1,-5.74 -9.02,-8.47 -14.49,-8.47 -4.1,0 -9.02,1.91 -14.22,6.01 -5.47,4.1 -11.21,10.12 -17.77,18.05 -2.19,-7.93 -6.01,-18.05 -11.48,-29.8 -5.47,-11.76 -12.58,-26.25 -21.33,-44.02zm256.18 -259.19c-11.75,0 -27.61,15.31 -47.57,46.21 -19.96,30.89 -29.8,53.58 -29.8,68.07 0,3.01 0.55,5.47 1.91,6.84 1.37,1.37 4.38,1.91 8.48,1.91 6.01,0 10.93,-3 14.49,-9.29 3.83,-6.02 7.38,-11.76 10.66,-17.23 5.74,-5.46 11.48,-11.21 17.23,-17.22 5.74,-6.29 11.2,-12.3 16.4,-18.32 6.56,-7.38 11.48,-14.76 14.49,-22.42 3.28,-7.38 4.92,-15.03 4.92,-22.42 0,-4.92 -0.82,-8.75 -2.73,-11.75 -1.92,-3.01 -4.65,-4.38 -8.48,-4.38z"/>
  </g>
  <path class="fil2" d="M5207.46 3236.82l-20.64 73.16c-2.98,10.45 -4.5,17.8 -4.5,22.1 0,6.02 1.92,10.51 5.82,13.62 3.9,3.04 12.7,4.7 26.39,4.96l-2.58 6.75 -128.19 0 2.12 -6.75c10.91,-0.13 18.59,-1.19 23.08,-3.24 4.5,-1.98 8.27,-5.29 11.25,-9.85 2.18,-2.98 5.49,-12.17 9.85,-27.59l47.89 -167.08c3.38,-11.25 5.1,-19.32 5.1,-24.15 0,-4.89 -2.18,-8.99 -6.42,-12.3 -4.3,-3.37 -12.04,-5.16 -23.28,-5.42l2.18 -6.75 104.45 0c28.7,0 49.34,3.64 61.91,10.91 19.45,11.38 29.17,28.51 29.17,51.33 0,22.03 -9.72,41.41 -29.1,58.21 -19.45,16.8 -45.58,25.2 -78.45,25.2 -9.86,0 -21.9,-1.05 -36.05,-3.11zm4.3 -15.14c8.26,1.06 15.21,1.58 20.7,1.58 17.59,0 31.49,-8.13 41.54,-24.47 10.12,-16.27 15.15,-33.27 15.15,-51 0,-12.04 -3.24,-21.36 -9.79,-28.04 -6.55,-6.69 -15.55,-9.99 -27.06,-9.99 -2.44,0 -5.49,0.13 -9.06,0.39l-31.48 111.53zm227.61 -44.06l-34.4 109.01c23.42,-53.18 41.01,-85.86 52.85,-98.16 6.95,-7.21 14.23,-10.85 21.9,-10.85 5.29,0 9.52,1.99 12.83,5.89 3.24,3.97 4.9,9.53 4.9,16.74 0,12.5 -2.98,23.01 -8.93,31.55 -3.77,5.42 -8.01,8.13 -12.7,8.13 -5.1,0 -8.87,-2.38 -11.38,-7.07 -2.51,-4.77 -4.3,-7.54 -5.36,-8.34 -0.99,-0.86 -2.05,-1.26 -3.17,-1.26 -1.26,0 -2.58,0.4 -3.97,1.2 -2.85,1.52 -6.49,5.35 -10.92,11.37 -4.5,6.02 -10.05,16.14 -16.67,30.3 -6.54,14.15 -11.64,26.19 -15.34,35.98 -3.64,9.79 -9.33,28.25 -17,55.3l-47.36 0 36.84 -128.39c2.45,-9.59 3.64,-15.88 3.64,-18.98 0,-3.51 -0.8,-6.22 -2.32,-8.14 -1.52,-1.92 -3.57,-3.37 -6.21,-4.3 -2.65,-0.86 -8.14,-1.32 -16.47,-1.32l1.58 -5.56 64.83 -13.1 12.83 0zm183.42 0c10.25,0 19.85,2.38 28.84,7.08 9,4.7 15.74,11.25 20.37,19.65 4.57,8.4 6.88,17.66 6.88,27.91 0,20.9 -5.88,41.81 -17.59,62.71 -11.71,20.9 -27.12,37.44 -46.24,49.48 -19.18,12.1 -38.43,18.12 -57.88,18.12 -17.59,0 -31.22,-5.23 -40.81,-15.68 -9.66,-10.45 -14.48,-23.21 -14.48,-38.36 0,-17.93 3.57,-34.73 10.78,-50.47 7.14,-15.68 16.27,-29.37 27.38,-41.01 11.05,-11.71 23.75,-21.17 38.1,-28.51 14.36,-7.28 29.24,-10.92 44.65,-10.92zm-8.07 10.32c-6.81,0 -12.5,1.99 -17.06,6.02 -9.07,8.14 -19.32,27.12 -30.7,56.95 -11.37,29.9 -17.06,56.82 -17.06,80.84 0,5.95 1.78,10.84 5.42,14.68 3.64,3.9 7.94,5.82 12.83,5.82 5.03,0 9.53,-1.52 13.37,-4.63 5.75,-4.63 12.7,-15.08 20.96,-31.29 8.34,-16.2 15.09,-34.06 20.44,-53.58 5.3,-19.58 7.94,-37.43 7.94,-53.71 0,-6.74 -1.59,-11.9 -4.83,-15.61 -3.24,-3.64 -7.01,-5.49 -11.31,-5.49zm183.56 -10.32l-25.47 83.41c16.67,-25.59 28.84,-42.86 36.51,-51.79 11.25,-13.1 20.58,-21.63 27.85,-25.6 7.34,-4.03 14.69,-6.02 22.1,-6.02 8.4,0 14.48,2.58 18.25,7.74 3.71,5.16 5.62,10.85 5.62,17.07 0,6.28 -1.78,15.54 -5.42,27.65l-9 30.95c18,-25.86 30.96,-43.06 38.9,-51.59 12.17,-13.23 22.75,-22.09 31.75,-26.79 6.28,-3.37 12.9,-5.03 19.98,-5.03 7.34,0 13.49,2.52 18.38,7.61 4.9,5.09 7.41,11.77 7.41,19.91 0,8.14 -2.18,18.72 -6.41,31.62l-23.55 71.04c-3.57,10.52 -5.29,17.33 -5.29,20.37 0,1 0.39,1.99 1.25,2.85 0.86,0.92 1.79,1.32 2.85,1.32 1.39,0 2.64,-0.4 3.7,-1.32 4.63,-3.71 9.59,-9.06 14.82,-16.21 1.19,-1.52 2.91,-3.83 5.22,-7.01l6.75 4.17c-8.93,16.4 -18.78,28.37 -29.57,35.98 -10.71,7.61 -20.63,11.44 -29.76,11.44 -7.94,0 -14.29,-2.11 -19.12,-6.41 -4.83,-4.3 -7.21,-9.39 -7.21,-15.15 0,-5.56 1.79,-14.02 5.36,-25.33l24.21 -76.01c3.24,-10.51 4.89,-17.06 4.89,-19.64 0,-0.93 -0.53,-1.79 -1.52,-2.65 -1.06,-0.86 -2.05,-1.25 -3.11,-1.25 -1.91,0 -3.77,0.39 -5.69,1.19 -2.84,1.25 -7.14,4.63 -12.89,10.12 -5.82,5.42 -14.16,15.21 -25.01,29.3 -10.91,14.09 -18.25,25.07 -22.02,33.01 -3.77,7.87 -7.54,18.12 -11.32,30.76l-12.17 40.08 -49.14 0 37.3 -126.6c2.05,-6.88 3.05,-11.58 3.05,-14.16 0,-0.93 -0.47,-1.79 -1.26,-2.51 -0.86,-0.8 -1.72,-1.19 -2.65,-1.19 -4.76,0 -12.37,6.28 -22.68,18.91 -15.75,19.45 -30.1,42.93 -43,70.32l-16.47 55.23 -49.94 0 37.64 -124.55c3.7,-12.24 5.55,-20.97 5.55,-26.13 0,-2.05 -0.53,-3.84 -1.65,-5.29 -1.13,-1.53 -2.91,-2.65 -5.36,-3.51 -2.51,-0.86 -7.28,-1.26 -14.35,-1.26l1.58 -7.54 68.14 -11.51 11.97 0zm331.66 0c10.25,0 19.85,2.38 28.84,7.08 9,4.7 15.74,11.25 20.37,19.65 4.57,8.4 6.88,17.66 6.88,27.91 0,20.9 -5.88,41.81 -17.59,62.71 -11.71,20.9 -27.12,37.44 -46.24,49.48 -19.18,12.1 -38.43,18.12 -57.88,18.12 -17.59,0 -31.22,-5.23 -40.81,-15.68 -9.66,-10.45 -14.48,-23.21 -14.48,-38.36 0,-17.93 3.57,-34.73 10.78,-50.47 7.14,-15.68 16.27,-29.37 27.38,-41.01 11.05,-11.71 23.75,-21.17 38.1,-28.51 14.36,-7.28 29.24,-10.92 44.65,-10.92zm-8.07 10.32c-6.81,0 -12.5,1.99 -17.06,6.02 -9.07,8.14 -19.32,27.12 -30.7,56.95 -11.37,29.9 -17.06,56.82 -17.06,80.84 0,5.95 1.78,10.84 5.42,14.68 3.64,3.9 7.94,5.82 12.83,5.82 5.03,0 9.53,-1.52 13.37,-4.63 5.75,-4.63 12.7,-15.08 20.96,-31.29 8.34,-16.2 15.09,-34.06 20.44,-53.58 5.3,-19.58 7.94,-37.43 7.94,-53.71 0,-6.74 -1.59,-11.9 -4.83,-15.61 -3.24,-3.64 -7.01,-5.49 -11.31,-5.49zm193.55 -57.55l-16.28 52.79 22.1 0 -6.75 22.22 -22.03 0 -35.25 113.84c-2.25,7.08 -3.38,12.44 -3.38,16.08 0,1.19 0.6,2.25 1.79,3.11 1.12,0.86 2.45,1.25 3.84,1.25 2.25,0 4.49,-0.86 6.88,-2.71 5.95,-4.5 12.89,-12.37 20.83,-23.61l6.75 4.23c-8.93,15.54 -18.79,26.92 -29.57,34.13 -10.78,7.21 -21.36,10.85 -31.75,10.85 -8.8,0 -15.61,-2.18 -20.5,-6.62 -4.83,-4.43 -7.28,-9.98 -7.28,-16.73 0,-7.54 1.79,-17.13 5.42,-28.91l32.88 -104.91 -24.94 0 3.71 -14.35c15.74,-6.08 29.43,-13.16 41.07,-21.3 11.58,-8.13 25.6,-21.3 42.01,-39.36l10.45 0zm82.82 -42.06c8,0 14.81,2.77 20.37,8.33 5.49,5.62 8.27,12.3 8.27,20.24 0,7.87 -2.78,14.62 -8.4,20.24 -5.56,5.56 -12.37,8.34 -20.24,8.34 -7.81,0 -14.56,-2.78 -20.11,-8.34 -5.63,-5.62 -8.4,-12.37 -8.4,-20.24 0,-7.94 2.77,-14.62 8.26,-20.24 5.56,-5.56 12.31,-8.33 20.25,-8.33zm15.74 89.29l-42.8 136.46c-2.38,7.81 -3.57,12.97 -3.57,15.35 0,1.52 0.6,2.91 1.72,4.17 1.12,1.25 2.31,1.92 3.64,1.92 2.11,0 4.3,-1 6.48,-3.05 5.69,-4.96 12.57,-14.02 20.57,-27.05l6.75 4.03c-19.71,35.39 -40.62,53.12 -62.77,53.12 -8.47,0 -15.22,-2.32 -20.25,-7.01 -5.02,-4.63 -7.54,-10.59 -7.54,-17.73 0,-4.76 1.19,-10.85 3.64,-18.19l29.64 -92.61c2.84,-8.86 4.3,-15.61 4.3,-20.1 0,-2.85 -1.33,-5.36 -3.97,-7.54 -2.58,-2.19 -6.22,-3.31 -10.72,-3.31 -2.12,0 -4.56,0.06 -7.47,0.2l2.38 -7.94 68 -10.72 11.97 0zm112.85 0l-24.81 83.22c17.14,-24.35 29.97,-40.95 38.43,-49.88 12.51,-12.9 23.22,-21.69 32.28,-26.33 9.07,-4.69 17.53,-7.01 25.47,-7.01 7.14,0 13.23,2.72 18.32,8.21 5.1,5.42 7.61,12.56 7.61,21.36 0,7.08 -1.65,15.74 -4.96,25.93l-26.46 81.43c-2.25,7.07 -3.37,11.7 -3.37,13.89 0,1.32 0.53,2.45 1.45,3.5 0.99,1 1.99,1.52 3.04,1.52 1.26,0 2.65,-0.52 4.04,-1.52 4.56,-3.7 9.13,-8.99 13.82,-15.74 1.13,-1.79 3.05,-4.43 5.63,-8l7.54 4.36c-19.25,31.49 -39.43,47.23 -60.66,47.23 -8.07,0 -14.42,-2.05 -18.98,-6.22 -4.57,-4.16 -6.88,-9.32 -6.88,-15.54 0,-5.43 1.65,-13.56 5.02,-24.28l26.33 -82.94c1.85,-5.43 2.78,-9.46 2.78,-12.04 0,-1.39 -0.66,-2.65 -1.92,-3.77 -1.26,-1.13 -2.78,-1.66 -4.43,-1.66 -5.36,0 -11.84,3.38 -19.45,10.12 -19.44,17.07 -38.23,42.6 -56.42,76.4l-16.6 57.55 -50.01 0 37.24 -124.09c3.51,-12.3 5.49,-21.04 5.95,-26.26 0,-2.18 -0.59,-4.1 -1.72,-5.56 -1.12,-1.52 -2.97,-2.71 -5.55,-3.57 -2.58,-0.86 -7.41,-1.26 -14.49,-1.26l1.59 -7.54 67.86 -11.51 12.31 0zm265.77 11.51l51.8 0 -6.35 21.43 -26.86 0c4.17,7.68 6.22,14.95 6.22,21.9 0,11.84 -3.18,22.75 -9.59,32.81 -6.35,10.05 -15.75,18.06 -28.18,24.01 -12.44,6.02 -26.26,8.99 -41.47,8.99 -3.97,0 -8.41,-0.33 -13.23,-0.92 -4.83,-0.6 -10.12,-1.46 -15.75,-2.51 -8.53,4.36 -13.89,7.8 -16.07,10.38 -1.52,1.79 -2.32,3.7 -2.32,5.62 0,2.32 1,4.3 2.91,5.96 3.31,2.97 8.27,5.16 14.82,6.54 26.26,5.69 43.59,10.26 51.93,13.7 11.44,4.83 20.11,10.98 25.93,18.45 5.88,7.48 8.79,16.54 8.79,27.12 0,16.21 -7.4,30.3 -22.29,42.4 -14.81,12.11 -37.77,18.13 -68.92,18.13 -31.36,0 -54.51,-5.16 -69.32,-15.55 -10.72,-7.47 -16.08,-16.47 -16.08,-26.79 0,-7.94 3.57,-15.21 10.65,-21.96 7.08,-6.75 22.23,-12.7 45.38,-17.86 -7.87,-4.36 -13.16,-8.4 -15.88,-11.97 -3.77,-4.9 -5.62,-9.99 -5.62,-15.28 0,-8.67 3.44,-16.21 10.25,-22.82 6.88,-6.55 18.46,-13.1 34.73,-19.51 -12.63,-5.03 -21.83,-11.58 -27.45,-19.52 -5.62,-7.94 -8.4,-17.26 -8.4,-27.85 0,-11.24 3.37,-21.96 10.19,-32.14 6.74,-10.19 16.8,-18.39 30.03,-24.74 13.23,-6.35 28.44,-9.53 45.64,-9.53 10.98,0 20.7,1.19 29.23,3.58 4.37,1.25 9.53,3.9 15.28,7.93zm-40.35 -1.98c-6.28,0 -11.64,2.05 -16,6.22 -6.95,6.28 -12.97,16.93 -18.19,31.75 -5.23,14.88 -7.81,28.97 -7.81,42.26 0,6.35 1.85,11.38 5.49,15.02 3.64,3.7 8.2,5.56 13.56,5.56 5.29,0 9.86,-1.79 13.69,-5.43 7.35,-7.14 13.7,-18.45 19.12,-34 5.36,-15.61 8.07,-29.7 8.07,-42.4 0,-5.69 -1.72,-10.25 -5.23,-13.76 -3.43,-3.5 -7.67,-5.22 -12.7,-5.22zm-66.67 178.33c-12.37,4.76 -20.84,9.92 -25.34,15.48 -4.49,5.55 -6.74,11.57 -6.74,18.06 0,8.4 4.43,16 13.23,22.82 8.79,6.81 22.88,10.18 42.2,10.18 16.07,0 27.78,-2.91 34.99,-8.79 7.21,-5.89 10.78,-12.77 10.78,-20.64 0,-7.01 -3.24,-12.7 -9.79,-17.07 -6.48,-4.43 -19.18,-8.99 -37.97,-13.82 -8.73,-2.32 -15.87,-4.43 -21.36,-6.22zm397.28 -93l-80.97 0 -16.67 20.37 -18.65 22.16c-3.64,4.89 -6.28,9.26 -7.94,13.23 -1.32,2.98 -1.92,6.02 -1.92,9.06 0,3.11 1.59,6.02 4.9,8.73 3.31,2.71 8.8,4.24 16.4,4.63l0 6.75 -78.58 0 1.99 -6.75c6.94,-1.19 13.16,-3.64 18.58,-7.47 7.21,-5.23 17.6,-16.08 31.22,-32.41l186.41 -222.45 8.73 0 -8.54 215.3c-0.39,11.25 -0.59,18.06 -0.59,20.44 0,8.93 1.72,15.41 5.22,19.52 3.51,4.03 9.4,6.41 17.53,7.07l-1.91 6.75 -113.71 0 2.12 -6.75c11.31,-1.06 17.79,-1.98 19.44,-2.71 3.64,-1.85 6.95,-5.69 9.92,-11.51 2.98,-5.75 4.77,-15.87 5.43,-30.23l1.59 -33.73zm0 -15.88l5.16 -85.86 -72.77 85.86 67.61 0zm253.21 54.38l5.95 5.15c-12.57,14.89 -24.94,25.74 -37.11,32.61 -16.2,9.2 -33.01,13.83 -50.4,13.83 -11.64,0 -21.96,-2.51 -31.02,-7.48 -9,-4.96 -15.62,-11.9 -19.91,-20.9 -4.3,-8.99 -6.42,-18.19 -6.42,-27.58 0,-21.17 5.75,-42 17.26,-62.44 11.51,-20.51 26.73,-36.71 45.64,-48.62 18.92,-11.97 37.51,-17.93 55.77,-17.93 14.61,0 25.59,3.24 33,9.66 7.35,6.42 11.05,14.42 11.05,23.95 0,8.59 -2.78,15.94 -8.4,22.02 -5.56,6.02 -11.84,9.06 -18.72,9.06 -6.02,0 -10.98,-1.91 -14.95,-5.82 -3.97,-3.83 -5.95,-8.46 -5.95,-13.75 0,-6.95 3.5,-13.04 10.51,-18.19 4.83,-3.58 7.28,-6.75 7.28,-9.46 0,-2.32 -0.99,-4.24 -2.91,-5.63 -2.58,-2.05 -5.95,-3.11 -10.12,-3.11 -10.85,0 -21.1,4.37 -30.63,13.17 -12.7,11.71 -22.42,26.46 -29.1,44.25 -6.75,17.86 -10.12,34.86 -10.12,50.87 0,12.7 3.44,22.82 10.32,30.36 6.88,7.6 15.01,11.38 24.54,11.38 8.27,0 17.26,-2.12 26.92,-6.29 9.66,-4.23 18.85,-10.58 27.52,-19.11zm176.14 0l5.95 5.15c-12.57,14.89 -24.94,25.74 -37.11,32.61 -16.2,9.2 -33.01,13.83 -50.39,13.83 -11.64,0 -21.96,-2.51 -31.02,-7.48 -9,-4.96 -15.62,-11.9 -19.91,-20.9 -4.3,-8.99 -6.42,-18.19 -6.42,-27.58 0,-21.17 5.75,-42 17.26,-62.44 11.51,-20.51 26.73,-36.71 45.64,-48.62 18.91,-11.97 37.5,-17.93 55.76,-17.93 14.61,0 25.59,3.24 33,9.66 7.35,6.42 11.05,14.42 11.05,23.95 0,8.59 -2.78,15.94 -8.4,22.02 -5.56,6.02 -11.84,9.06 -18.72,9.06 -6.02,0 -10.98,-1.91 -14.95,-5.82 -3.97,-3.83 -5.95,-8.46 -5.95,-13.75 0,-6.95 3.5,-13.04 10.51,-18.19 4.83,-3.58 7.28,-6.75 7.28,-9.46 0,-2.32 -0.99,-4.24 -2.91,-5.63 -2.58,-2.05 -5.95,-3.11 -10.12,-3.11 -10.85,0 -21.1,4.37 -30.63,13.17 -12.7,11.71 -22.41,26.46 -29.09,44.25 -6.75,17.86 -10.12,34.86 -10.12,50.87 0,12.7 3.44,22.82 10.32,30.36 6.88,7.6 15,11.38 24.53,11.38 8.27,0 17.26,-2.12 26.92,-6.29 9.66,-4.23 18.85,-10.58 27.52,-19.11zm88.57 -26.6c-1.13,8.4 -1.72,15.35 -1.72,20.77 0,9.73 2.84,17.47 8.47,23.29 5.62,5.82 13.16,8.73 22.62,8.73 9.06,0 18.12,-1.92 27.25,-5.82 9.13,-3.9 19.71,-10.65 31.75,-20.37l5.95 4.89c-14.88,16.87 -29.3,28.84 -43.39,35.98 -14.09,7.15 -29.63,10.72 -46.7,10.72 -21.56,0 -36.51,-5.16 -44.78,-15.48 -8.27,-10.32 -12.37,-22.29 -12.37,-35.85 0,-21.17 6.15,-42.33 18.52,-63.5 12.31,-21.17 29.11,-38.17 50.41,-50.93 21.23,-12.77 42.59,-19.19 64.03,-19.19 10.84,0 19.05,2.58 24.6,7.74 5.56,5.16 8.34,11.64 8.34,19.52 0,9.45 -2.71,18.58 -8.14,27.45 -7.54,12.17 -17,21.89 -28.44,29.3 -11.38,7.47 -24.15,13.1 -38.23,16.93 -9.53,2.58 -22.23,4.5 -38.17,5.82zm1.78 -9.92c11.45,-1.65 20.31,-3.97 26.66,-6.88 6.29,-2.84 12.5,-7.47 18.52,-13.89 6.09,-6.35 11.31,-14.35 15.75,-24.08 4.43,-9.72 6.61,-18.85 6.61,-27.31 0,-3.58 -0.99,-6.42 -3.04,-8.47 -1.99,-2.05 -4.57,-3.11 -7.68,-3.11 -6.28,0 -13.29,4.3 -21.1,12.9 -14.28,15.74 -26.19,39.36 -35.72,70.84zm259.96 -96.84l-8.33 59.93 -7.15 0c-1.05,-15.41 -5.75,-27.51 -14.22,-36.31 -8.46,-8.87 -17.53,-13.3 -27.18,-13.3 -5.96,0 -10.85,1.72 -14.69,5.23 -3.9,3.5 -5.82,7.67 -5.82,12.63 0,4.1 0.86,8.01 2.51,11.58 1.66,3.64 5.43,8.53 11.25,14.75 20.37,21.96 32.74,37.04 37.17,45.24 4.44,8.27 6.62,17.07 6.62,26.46 0,10.12 -2.58,19.71 -7.74,28.77 -5.16,9.07 -12.9,16.34 -23.22,21.77 -10.25,5.49 -20.97,8.2 -32.08,8.2 -7.47,0 -16.73,-1.39 -27.71,-4.17 -7.28,-1.98 -12.7,-2.91 -16.34,-2.91 -3.24,0 -5.76,0.46 -7.54,1.32 -1.79,0.93 -3.84,2.85 -6.02,5.76l-7.15 0 9.53 -64.3 6.35 0c4.5,15.75 8.73,26.93 12.63,33.61 3.97,6.74 9.2,12.04 15.75,16 6.54,3.97 12.89,5.96 18.91,5.96 7.08,0 12.97,-2.25 17.6,-6.68 4.63,-4.5 6.94,-9.79 6.94,-16.01 0,-6.09 -1.52,-11.97 -4.56,-17.6 -2.98,-5.68 -9.99,-14.55 -20.97,-26.59 -15.01,-16.4 -24.94,-29.1 -29.77,-38.03 -3.37,-6.48 -5.02,-13.89 -5.02,-22.23 0,-14.02 5.02,-25.73 15.15,-35.05 10.12,-9.33 24.27,-14.03 42.59,-14.03 7.94,0 17.73,1.46 29.31,4.44 5.82,1.52 10.45,2.24 13.89,2.24 5.02,0 9.06,-2.24 12.17,-6.68l7.14 0zm154.45 0l-8.33 59.93 -7.15 0c-1.05,-15.41 -5.75,-27.51 -14.22,-36.31 -8.46,-8.87 -17.53,-13.3 -27.18,-13.3 -5.96,0 -10.85,1.72 -14.69,5.23 -3.9,3.5 -5.82,7.67 -5.82,12.63 0,4.1 0.86,8.01 2.51,11.58 1.66,3.64 5.43,8.53 11.25,14.75 20.37,21.96 32.74,37.04 37.17,45.24 4.44,8.27 6.62,17.07 6.62,26.46 0,10.12 -2.58,19.71 -7.74,28.77 -5.16,9.07 -12.9,16.34 -23.22,21.77 -10.25,5.49 -20.97,8.2 -32.08,8.2 -7.47,0 -16.73,-1.39 -27.71,-4.17 -7.28,-1.98 -12.7,-2.91 -16.34,-2.91 -3.24,0 -5.76,0.46 -7.54,1.32 -1.79,0.93 -3.84,2.85 -6.02,5.76l-7.15 0 9.53 -64.3 6.35 0c4.5,15.75 8.73,26.93 12.63,33.61 3.97,6.74 9.2,12.04 15.75,16 6.54,3.97 12.89,5.96 18.91,5.96 7.08,0 12.97,-2.25 17.6,-6.68 4.63,-4.5 6.94,-9.79 6.94,-16.01 0,-6.09 -1.52,-11.97 -4.56,-17.6 -2.98,-5.68 -9.99,-14.55 -20.97,-26.59 -15.01,-16.4 -24.94,-29.1 -29.77,-38.03 -3.37,-6.48 -5.02,-13.89 -5.02,-22.23 0,-14.02 5.02,-25.73 15.15,-35.05 10.12,-9.33 24.27,-14.03 42.59,-14.03 7.94,0 17.73,1.46 29.31,4.44 5.82,1.52 10.45,2.24 13.89,2.24 5.02,0 9.06,-2.24 12.17,-6.68l7.14 0z"/>
  <path class="fil3" d="M3684.99 1055.15c-74.71,0 -165.24,86.05 -165.24,172.85 0,86.8 60.56,174.96 135.27,174.96 74.71,0 145.26,-82.45 156.68,-169.25 11.41,-86.8 -52,-178.56 -126.71,-178.56l0 0z"/>
  <path class="fil4" d="M4268.33 675.71c-104.6,0 -224.7,107.04 -244.68,225.19 -19.98,118.15 57.32,207.69 144.8,207.69 87.47,0 218.32,-105.43 258.27,-229.29 39.95,-123.85 -53.79,-203.59 -158.39,-203.59z"/>
  <path class="fil4" d="M4833.31 779.88c-859.51,614.4 -768.69,569.56 -1000.36,-8.96 200.72,1154.86 -1490.68,1816 196.91,1880.69 -1023.6,-212.25 -397.58,-704.63 803.45,-1871.73l0 0z"/>
  <path class="fil3" d="M4150.36 1139.65c-557.02,474.56 -551.81,441.13 -772.07,-23.23 274.93,1126.31 -1193.87,1450.71 379.57,1512.54 -522.71,-88.34 -737.19,-290.82 392.5,-1489.31l0 0z"/>
  <path class="fil5 str0" d="M2952.7 3688.75c2853.87,-1535.38 5434.47,-1076.58 6518.23,-595.14"/>
  <path class="fil5 str1" d="M3158.18 3112.9c3521.67,-1187.21 5348.87,-169.05 6432.61,312.4"/>
 </g>
</svg>
