<?xml version="1.0" encoding="UTF-8"?>
<!DOCTYPE svg PUBLIC "-//W3C//DTD SVG 1.1//EN" "http://www.w3.org/Graphics/SVG/1.1/DTD/svg11.dtd">
<!-- Creator: CorelDRAW 2019 (64-Bit Evaluation Version) -->
<svg xmlns="http://www.w3.org/2000/svg" xml:space="preserve" width="254mm" height="185.208mm" version="1.1" style="shape-rendering:geometricPrecision; text-rendering:geometricPrecision; image-rendering:optimizeQuality; fill-rule:evenodd; clip-rule:evenodd"
viewBox="0 0 25400 18520.82"
 xmlns:xlink="http://www.w3.org/1999/xlink"
 xmlns:xodm="http://www.corel.com/coreldraw/odm/2003">
 <defs>
  <style type="text/css">
   <![CDATA[
    .str0 {stroke:black;stroke-width:150;stroke-miterlimit:22.9256}
    .fil0 {fill:none}
    .fil2 {fill:black}
    .fil5 {fill:#0D0C0B}
    .fil3 {fill:#110D0D}
    .fil4 {fill:red}
    .fil1 {fill:white}
   ]]>
  </style>
 </defs>
 <g id="Layer_x0020_1">
  <metadata id="CorelCorpID_0Corel-Layer"/>
  <rect class="fil0" x="79.36" y="66.48" width="25505.83" height="18322.03"/>
  <g id="_2128444106032">
   <ellipse class="fil1 str0" cx="12442.7" cy="8982.27" rx="5333.89" ry="6493.42"/>
   <path class="fil2" d="M16955.99 3052.35c114.69,192.6 308.06,380.54 450.75,574.63 1157.2,1573.84 1837.52,3280.07 1901.69,5569.41 52.57,1876.18 -490.68,3713.55 -1367.71,5083.54 -202.71,316.67 -804.61,1064.93 -849.91,1234.31 462.02,-67.74 1888.82,-908.26 2304.22,-1173.08 1391.23,-886.94 2736.72,-1950.01 3915.68,-3131.87 296.29,-297.01 603.24,-600.38 876.02,-908.67 190.63,-215.47 703.05,-762.76 820.8,-988.8 -280.99,-521.4 -2164.69,-2363.47 -2672.06,-2798.39 -332.21,-284.77 -632,-538.22 -978.58,-821.76 -862.43,-705.58 -3409.26,-2444.67 -4400.9,-2639.32z"/>
   <path class="fil2" d="M8010.24 15515.72c-36.98,-137.81 -656.71,-910.15 -858.16,-1228.02 -1535.77,-2423.43 -1818.56,-5895.92 -655.88,-8662.93 689.95,-1641.96 1274.93,-1982.33 1552.85,-2533.99 -430.07,49.15 -1870.52,938.33 -2284.55,1188.95 -749.06,453.38 -1413.82,925.87 -2080.15,1454.75 -675.39,536.07 -1294.78,1112.37 -1888.95,1687.76 -318.89,308.8 -575.32,607.05 -874,910.97 -159.65,162.45 -742.48,824 -828.79,978.61 191.45,363.39 1356.03,1555.51 1699.04,1893.97 1169.92,1154.32 2507.56,2290.86 3920.66,3126.55 467.58,276.52 1829.66,1108.85 2297.93,1183.38z"/>
   <path class="fil3" d="M11057.48 12388.29l23.7 28.83c-1.58,-1.87 -31.59,-19.19 -23.7,-28.83zm79.36 -483.05l23.7 28.77c-1.59,-1.87 -31.58,-19.18 -23.7,-28.77zm2460.37 -4251.29l23.69 28.8c-1.57,-1.9 -31.58,-19.19 -23.69,-28.8zm79.36 -289.83l23.68 28.77c-1.54,-1.87 -31.57,-19.18 -23.68,-28.77zm-75.71 -524.55c-379.4,650.29 -1874.65,2645.06 -2590.72,3848.08 -427.29,717.87 -1248.7,2197.67 -430.73,3053.82 79.26,82.98 375.57,294.58 443.71,329.34 485.94,247.81 717.63,190.99 1140.7,328.98l981.34 52.69c-83.48,-85.63 25.45,-27.07 -174.57,-131.56 -8.33,-4.38 -180.76,-77.99 -185.23,-79.68 -374.09,-142.73 -640.29,-201.11 -1006.67,-508.64 -1423.96,-1195.48 450.13,-3365.68 1088.94,-4360.43l1862.34 -2368.51c339.52,-424.16 646.97,-723.69 976.92,-1128.39l983.72 -1211.43c-707.74,393.87 -2272.3,2223.9 -3089.75,2175.73z"/>
   <path class="fil4" d="M12163.82 14399.79c-423.07,-137.99 -654.76,-81.17 -1140.7,-328.98 -68.14,-34.76 -364.45,-246.36 -443.71,-329.34 -817.97,-856.15 3.44,-2335.95 430.73,-3053.82 716.07,-1203.02 2211.32,-3197.79 2590.72,-3848.08l-167.69 -41.66c-72.67,278.89 -624.53,734.12 -841.43,900.04 -339.08,259.31 -272.73,53.74 -275.64,49.51 -832.41,1673.09 -1351.86,-598.81 -1802.83,-1174.06 997.07,4237.52 -2975.75,6585.68 -999.8,7496.34 631.22,290.95 1918.02,412.05 2650.35,330.05z"/>
   <path class="fil5" d="M14610.5 4079.03l-531.94 0c-1947.49,1672.28 -36.93,3305.93 742.94,1500.01 350.14,-810.8 112.74,-1099.76 -211,-1500.01z"/>
   <path class="fil4" d="M12325.37 7638.33l252.39 -1023.64c-310.37,-202.76 2,-62.44 -289.25,-363.42 -391.14,-404.18 -1023.65,-98.17 -1132.59,657.81 -72.31,501.81 103.36,1371.83 1029.95,777.63 178.25,-114.34 -1.92,-108.3 139.5,-48.38z"/>
   <path class="fil3" d="M12577.76 6614.69l-252.39 1023.64 -9.27 109.13c2.91,4.23 -63.44,209.8 275.64,-49.51 216.9,-165.92 768.76,-621.15 841.43,-900.04 -197.26,-313.39 -300.32,-678.52 -442.96,-1098.09 -140.7,-413.87 -276.53,-731.64 -456.93,-1089.09l44.48 2003.96z"/>
  </g>
 </g>
</svg>
